<?xml version="1.0" standalone="no"?>
<!DOCTYPE svg PUBLIC "-//W3C//DTD SVG 20010904//EN"
 "http://www.w3.org/TR/2001/REC-SVG-20010904/DTD/svg10.dtd">
<svg version="1.0" xmlns="http://www.w3.org/2000/svg"
 width="700.000000pt" height="700.000000pt" viewBox="0 0 700.000000 700.000000"
 preserveAspectRatio="xMidYMid meet">
<metadata>
Created by potrace 1.14, written by Peter Selinger 2001-2017
</metadata>
<g transform="translate(0.000000,700.000000) scale(0.100000,-0.100000)"
fill="#000000" stroke="none">
<path d="M3280 6927 c-3 -3 -45 -8 -95 -11 -49 -4 -98 -9 -110 -11 -11 -2 -38
-7 -60 -10 -424 -56 -898 -222 -1262 -441 -84 -51 -306 -199 -326 -218 -7 -6
-46 -38 -87 -71 -106 -84 -139 -115 -275 -250 -412 -413 -709 -917 -868 -1475
-33 -115 -78 -320 -91 -415 -31 -218 -38 -316 -39 -508 -1 -141 8 -346 17
-393 2 -11 9 -63 16 -115 15 -117 22 -132 48 -104 16 17 149 139 203 186 10 9
60 54 111 101 51 47 113 103 137 124 24 22 56 50 70 64 14 14 96 88 181 165
85 77 157 142 160 145 3 3 50 45 105 95 55 49 102 92 105 95 3 3 50 46 104 95
55 50 107 97 116 105 46 42 192 174 210 190 12 10 58 52 103 93 45 42 92 84
103 94 28 23 191 172 218 198 18 17 618 562 668 606 19 17 108 98 308 279 180
163 202 183 237 216 33 31 170 155 203 184 9 8 59 53 110 100 110 101 91 83
215 195 55 50 105 95 111 100 6 6 53 48 105 95 51 47 118 108 149 135 30 28
59 55 66 60 126 114 183 170 177 176 -7 6 -110 34 -166 45 -10 2 -26 5 -35 8
-29 9 -252 46 -311 52 -31 3 -72 8 -91 11 -44 6 -534 15 -540 10z"/>
<path d="M4937 6567 c-46 -43 -205 -188 -231 -210 -12 -10 -39 -35 -61 -55
-22 -21 -134 -123 -250 -227 -115 -104 -212 -192 -215 -195 -6 -6 -202 -185
-324 -295 -49 -44 -101 -91 -116 -105 -42 -39 -200 -181 -243 -220 -22 -19
-51 -46 -66 -60 -14 -14 -64 -59 -110 -100 -46 -41 -101 -91 -121 -110 -20
-19 -70 -64 -110 -100 -40 -36 -85 -76 -100 -90 -15 -14 -64 -59 -110 -100
-46 -41 -88 -80 -94 -85 -6 -6 -40 -37 -76 -69 -36 -32 -83 -75 -105 -96 -22
-20 -114 -103 -205 -185 -91 -82 -167 -151 -170 -154 -3 -3 -48 -44 -100 -91
-52 -47 -97 -88 -100 -91 -3 -3 -81 -75 -175 -159 -93 -85 -175 -159 -181
-164 -6 -6 -46 -42 -89 -81 -93 -84 -95 -86 -221 -200 -162 -148 -372 -338
-448 -406 -26 -24 -63 -57 -81 -74 -17 -16 -70 -64 -115 -105 -46 -41 -102
-92 -124 -113 -23 -22 -66 -60 -96 -87 -58 -50 -67 -59 -169 -153 l-63 -58 42
-107 c58 -147 156 -345 237 -480 82 -136 234 -352 248 -352 6 0 33 22 60 48
28 26 100 92 160 146 61 55 150 136 199 180 49 44 98 89 110 99 22 19 188 170
216 197 9 8 61 56 116 105 54 50 119 108 143 130 24 22 49 45 55 50 26 23 221
200 226 205 3 3 48 43 100 90 52 47 101 92 110 100 9 8 56 51 104 95 124 112
122 111 221 200 48 44 93 85 99 90 6 6 85 77 176 160 91 82 170 154 176 160 6
5 45 41 87 79 82 73 98 88 188 170 30 28 95 87 144 131 49 44 100 91 114 103
14 13 62 56 106 95 43 40 92 85 109 100 16 15 68 62 115 105 183 165 417 377
427 387 6 5 46 42 90 82 43 39 91 82 105 95 14 12 68 61 119 108 52 47 121
110 155 140 33 30 80 73 105 95 24 22 58 54 76 70 18 17 65 59 105 95 66 58
144 129 220 200 15 14 58 53 96 86 37 34 80 72 94 85 14 13 65 60 114 104 48
44 100 91 115 105 125 115 120 104 67 149 -16 14 -34 30 -41 36 -43 41 -199
165 -292 232 -139 100 -330 215 -456 275 l-57 27 -34 -32z"/>
<path d="M6154 5562 c-27 -26 -92 -85 -143 -132 -52 -47 -99 -90 -105 -95 -6
-6 -60 -55 -121 -109 -60 -55 -115 -104 -120 -110 -6 -6 -51 -47 -100 -91 -50
-44 -95 -84 -101 -90 -6 -5 -49 -45 -96 -88 -47 -42 -96 -87 -110 -100 -13
-12 -61 -56 -107 -97 -46 -41 -95 -86 -110 -100 -50 -46 -115 -105 -221 -200
-58 -52 -130 -117 -160 -146 -30 -28 -77 -71 -105 -95 -27 -24 -52 -46 -55
-49 -9 -9 -411 -374 -440 -400 -9 -8 -55 -50 -102 -93 -47 -42 -98 -89 -114
-103 -16 -15 -47 -43 -69 -63 -22 -20 -110 -99 -195 -176 -85 -77 -160 -144
-166 -150 -58 -54 -200 -183 -214 -195 -10 -8 -59 -53 -110 -100 -51 -47 -98
-89 -104 -95 -6 -5 -58 -53 -116 -105 -95 -86 -177 -160 -220 -200 -9 -8 -56
-51 -106 -95 -49 -43 -96 -86 -105 -95 -16 -15 -156 -143 -243 -221 -27 -24
-61 -55 -76 -69 -15 -14 -67 -61 -115 -105 -49 -44 -98 -89 -111 -100 -12 -11
-57 -51 -99 -90 -43 -38 -87 -79 -99 -90 -12 -11 -64 -58 -116 -105 -52 -47
-117 -106 -145 -132 -27 -25 -60 -55 -73 -66 -87 -75 -222 -202 -222 -208 0
-6 77 -75 160 -144 41 -34 85 -70 97 -80 12 -10 34 -27 50 -37 15 -9 30 -20
33 -24 6 -7 128 -89 210 -142 88 -56 292 -167 306 -167 1 0 9 6 16 13 7 7 65
60 128 117 115 104 183 166 204 185 6 6 58 53 116 105 58 52 107 97 110 100 3
3 48 43 100 90 52 47 101 92 110 100 9 8 56 51 104 95 49 44 94 85 100 90 6 6
65 60 131 119 66 60 161 146 210 191 50 45 146 132 215 195 69 62 167 151 218
198 51 47 103 94 115 104 12 11 57 52 101 91 43 40 91 83 106 97 15 14 65 59
111 102 46 42 95 86 109 98 34 29 180 161 200 180 8 8 60 55 115 105 55 49
102 92 105 95 3 3 55 50 115 105 61 54 115 104 121 110 6 5 51 46 100 90 76
69 298 270 330 300 29 27 172 156 190 172 12 10 63 57 115 104 81 74 155 141
363 329 21 19 53 49 71 65 17 17 72 66 121 110 120 108 261 236 436 396 l38
34 -50 120 c-28 66 -62 143 -76 170 -14 28 -42 82 -62 120 -45 88 -130 228
-196 324 -28 40 -58 83 -66 95 -8 12 -26 36 -40 53 l-25 32 -51 -47z"/>
<path d="M6834 4112 c-17 -15 -75 -67 -129 -117 -54 -49 -103 -94 -109 -100
-43 -38 -203 -183 -216 -195 -9 -8 -36 -33 -61 -55 -55 -49 -250 -226 -265
-240 -6 -5 -48 -44 -93 -85 -46 -41 -93 -84 -105 -95 -12 -11 -59 -54 -105
-95 -46 -41 -98 -88 -116 -105 -42 -39 -85 -78 -225 -205 -183 -166 -190 -172
-252 -230 -33 -30 -69 -62 -81 -73 -22 -18 -147 -131 -198 -178 -14 -13 -63
-58 -108 -99 -46 -41 -96 -86 -111 -100 -69 -64 -143 -131 -220 -200 -46 -41
-95 -86 -110 -100 -32 -29 -158 -144 -320 -289 -63 -57 -120 -109 -125 -115
-6 -6 -51 -47 -100 -91 -50 -44 -95 -84 -101 -90 -64 -59 -201 -184 -216 -197
-11 -9 -60 -54 -110 -100 -102 -93 -107 -97 -226 -205 -47 -43 -96 -87 -108
-98 -30 -27 -70 -64 -194 -175 -58 -52 -110 -99 -116 -105 -6 -5 -50 -46 -98
-89 -48 -44 -83 -82 -79 -86 12 -10 243 -66 348 -84 245 -42 344 -50 610 -51
275 0 462 17 675 60 897 184 1660 690 2171 1440 301 441 509 989 565 1487 3
29 7 64 10 78 22 133 22 588 0 730 -2 14 -8 52 -12 85 -4 33 -8 62 -9 65 0 3
-4 31 -9 62 -4 32 -11 60 -15 62 -3 3 -20 -8 -37 -22z"/>
</g>
</svg>
